<?xml version="1.0" encoding="UTF-8" standalone="no"?>
<!-- Created with Inkscape (http://www.inkscape.org/) -->
<svg
   xmlns:dc="http://purl.org/dc/elements/1.1/"
   xmlns:cc="http://web.resource.org/cc/"
   xmlns:rdf="http://www.w3.org/1999/02/22-rdf-syntax-ns#"
   xmlns:svg="http://www.w3.org/2000/svg"
   xmlns="http://www.w3.org/2000/svg"
   xmlns:sodipodi="http://sodipodi.sourceforge.net/DTD/sodipodi-0.dtd"
   xmlns:inkscape="http://www.inkscape.org/namespaces/inkscape"
   width="54.125"
   height="67.90625"
   id="svg2"
   sodipodi:version="0.32"
   inkscape:version="0.45.1"
   sodipodi:docname="Twitter logo t.svg"
   inkscape:output_extension="org.inkscape.output.svg.inkscape"
   version="1.0">
  <defs
     id="defs4" />
  <sodipodi:namedview
     id="base"
     pagecolor="#ffffff"
     bordercolor="#666666"
     borderopacity="1.0"
     gridtolerance="10000"
     guidetolerance="10"
     objecttolerance="10"
     inkscape:pageopacity="0.0"
     inkscape:pageshadow="2"
     inkscape:zoom="3.959798"
     inkscape:cx="63.73369"
     inkscape:cy="15.627665"
     inkscape:document-units="px"
     inkscape:current-layer="layer1"
     inkscape:window-width="1000"
     inkscape:window-height="809"
     inkscape:window-x="198"
     inkscape:window-y="198" />
  <metadata
     id="metadata7">
    <rdf:RDF>
      <cc:Work
         rdf:about="">
        <dc:format>image/svg+xml</dc:format>
        <dc:type
           rdf:resource="http://purl.org/dc/dcmitype/StillImage" />
        <cc:license
           rdf:resource="http://web.resource.org/cc/PublicDomain" />
      </cc:Work>
      <cc:License
         rdf:about="http://web.resource.org/cc/PublicDomain">
        <cc:permits
           rdf:resource="http://web.resource.org/cc/Reproduction" />
        <cc:permits
           rdf:resource="http://web.resource.org/cc/Distribution" />
        <cc:permits
           rdf:resource="http://web.resource.org/cc/DerivativeWorks" />
      </cc:License>
    </rdf:RDF>
  </metadata>
  <g
     inkscape:label="Layer 1"
     inkscape:groupmode="layer"
     id="layer1"
     transform="translate(-193.21875,-158.4375)">
    <g
       id="g3166">
      <path
         sodipodi:nodetypes="csccccccssccsssccccc"
         id="path2189"
         d="M 206.71875,158.4375 C 203.28517,158.4375 199.65094,159.88227 197.1875,162.3125 C 194.70523,164.76501 193.21875,168.45227 193.21875,171.90625 L 193.21875,199.25 C 193.21874,206.45841 196.07954,213.30339 201.1875,218.40625 C 206.29097,223.51227 213.10631,226.34375 220.3125,226.34375 L 233.875,226.34375 C 237.32591,226.34374 240.94314,224.80324 243.375,222.375 C 245.82102,219.93807 247.34375,216.32778 247.34375,212.875 C 247.34376,209.42205 245.80981,205.80619 243.375,203.375 C 240.94067,200.9425 237.33262,199.4375 233.875,199.4375 L 233.875,199.03125 C 237.33026,199.03124 240.93985,197.52347 243.375,195.09375 C 245.81214,192.66023 247.34375,189.04651 247.34375,185.59375 C 247.34375,182.14083 245.82266,178.49567 243.375,176.0625 C 240.93596,173.63431 237.30001,172.125 233.84375,172.125 L 220.125,172.125 L 220.125,171.875 C 220.12499,168.42876 218.61332,164.83932 216.1875,162.40625 C 213.75986,159.95125 210.16725,158.4375 206.71875,158.4375 z "
         style="fill:#ffffff;fill-opacity:1;stroke:none;stroke-width:13.19999981;stroke-miterlimit:4;stroke-dasharray:none;stroke-opacity:1" />
      <path
         sodipodi:nodetypes="csssccccsscccccsssccscccc"
         id="path2163"
         d="M 233.873,192.44279 C 235.754,192.44279 237.37,191.76979 238.715,190.42779 C 240.061,189.08379 240.733,187.47079 240.733,185.59079 C 240.733,183.70979 240.061,182.09779 238.71,180.75479 C 237.36,179.41079 235.741,178.73779 233.854,178.73779 L 213.533,178.73779 L 213.533,171.88579 C 213.533,170.00279 212.864,168.39179 211.527,167.05079 C 210.195,165.70379 208.588,165.03279 206.72,165.03279 C 204.795,165.03279 203.164,165.69279 201.829,167.00979 C 200.494,168.32879 199.826,169.95579 199.826,171.89079 L 199.826,199.24179 C 199.826,204.88979 201.829,209.71679 205.839,213.72279 C 209.846,217.73179 214.672,219.73379 220.318,219.73379 L 233.875,219.73379 C 235.758,219.73379 237.369,219.06279 238.714,217.71979 C 240.06,216.37879 240.732,214.76279 240.732,212.88279 C 240.732,211.00179 240.06,209.39079 238.714,208.04679 C 237.369,206.70279 235.753,206.02879 233.872,206.02879 L 220.312,206.02879 C 218.429,206.02879 216.827,205.36879 215.508,204.05079 C 214.189,202.72679 213.531,201.12279 213.531,199.23579 L 213.531,192.44179 L 233.873,192.44179 L 233.873,192.44279 z "
         style="fill:#33ccff" />
    </g>
  </g>
</svg>
